# xmcd
#
# Track frame offsets:
# 150
# 16527
# 32427
# 48480
# 66030
# 85907
# 102707
# 119357
# 135182
# 152960
# 171109
# 187984
# 206884
# 225334
#
# Disc length: 3214 seconds
#
#
# Revision: 3
# Processed by: cddbd v1.5.2PL0 Copyright (c) Steve Scherf et al.
# Submitted via: FreeRIP 2.951 
#
DISCID=ad0c8c0e
DTITLE=Wanessa Camargo - Wanessa Camargo - 2002
DYEAR=2002
DGENRE=JPop
TTITLE0=Como Dizer ao Coração
TTITLE1=Um Dia... Meu Primeiro Amor
TTITLE2=Sem Querer
TTITLE3=Filme de Amor
TTITLE4=O Tempo que a Paixão Quiser
TTITLE5=Paga pra Ver (tô Pagando pra Ver)
TTITLE6=Vou Te Amar pra Sempre
TTITLE7=Tentei Te Esquecer
TTITLE8=Sonho Meu
TTITLE9=Nada Sem o Seu Amor
TTITLE10=Falta Teu Beijo
TTITLE11=Te Amo Assim
TTITLE12=O Nosso Amor
TTITLE13=My Sweet Someday
EXTD=YEAR: 2002
EXTT0=
EXTT1=
EXTT2=
EXTT3=
EXTT4=
EXTT5=
EXTT6=
EXTT7=
EXTT8=
EXTT9=
EXTT10=
EXTT11=
EXTT12=
EXTT13=
PLAYORDER=
